# xmcd
#
# Track frame offsets:
#	150
#	13544
#	25160
#	42898
#	55949
#	68052
#	80973
#	93802
#	103452
#	115496
#	129167
#	138529
#	150137
#
# Disc length: 2444 seconds
#
# Revision: 1
# Processed by: cddbd v1.5.2PL0 Copyright (c) Steve Scherf et al.
# Submitted via: audiograbber 1.83.01
#
DISCID=a5098a0d
DTITLE=Solberger Stubenmusik - Beblueselt
DYEAR=2003
DGENRE=
TTITLE0=Naughty nephew
TTITLE1=Zwei wie nie
TTITLE2=Listen to the snow
TTITLE3=Swinging Alphorn
TTITLE4=Lechtaler Walzer
TTITLE5=Ouverture
TTITLE6=Früh am Morgen
TTITLE7=Beblueselt
TTITLE8=Bisch narrisch
TTITLE9=Lost
TTITLE10=Lechtaler Polka
TTITLE11=Umdada
TTITLE12=See the sun go down
EXTD=
EXTT0=
EXTT1=
EXTT2=
EXTT3=
EXTT4=
EXTT5=
EXTT6=
EXTT7=
EXTT8=
EXTT9=
EXTT10=
EXTT11=
EXTT12=
PLAYORDER=
